<svg width="26" height="28" viewBox="0 0 26 28" fill="none" xmlns="http://www.w3.org/2000/svg">
<g id="octicon:home-24">
<path id="Vector" d="M11.9492 3.66098C12.2428 3.40822 12.6152 3.2695 13 3.2695C13.3848 3.2695 13.7572 3.40822 14.0508 3.66098L22.1758 10.6674C22.3557 10.8225 22.5003 11.0155 22.5995 11.233C22.6986 11.4505 22.75 11.6874 22.75 11.9271V22.281C22.75 22.719 22.5788 23.1391 22.274 23.4489C21.9693 23.7586 21.556 23.9327 21.125 23.9327H14.8958C14.6803 23.9327 14.4737 23.8457 14.3213 23.6908C14.1689 23.5359 14.0833 23.3259 14.0833 23.1068V16.2248H11.9167V23.1068C11.9167 23.3259 11.8311 23.5359 11.6787 23.6908C11.5263 23.8457 11.3197 23.9327 11.1042 23.9327H4.875C4.44402 23.9327 4.0307 23.7586 3.72595 23.4489C3.4212 23.1391 3.25 22.719 3.25 22.281V11.9271C3.25 11.4426 3.46017 10.9813 3.82417 10.6674L11.9492 3.66098ZM13 4.92067L4.875 11.9271V22.281H10.2917V15.399C10.2917 15.1799 10.3773 14.9699 10.5296 14.815C10.682 14.6601 10.8887 14.5731 11.1042 14.5731H14.8958C15.1113 14.5731 15.318 14.6601 15.4704 14.815C15.6227 14.9699 15.7083 15.1799 15.7083 15.399V22.281H21.125V11.9271L13 4.92067Z" fill="#161816"/>
</g>
</svg>
