<svg width="26" height="28" viewBox="0 0 26 28" fill="none" xmlns="http://www.w3.org/2000/svg">
<g id="icon/tabbar">
<path id="Vector" d="M23.4513 22.6938C21.9045 19.9757 19.5208 18.0268 16.739 17.1028C18.115 16.2703 19.1841 15.0016 19.782 13.4916C20.38 11.9817 20.4738 10.314 20.049 8.74466C19.6242 7.1753 18.7043 5.79107 17.4306 4.80453C16.1569 3.81799 14.5998 3.28369 12.9985 3.28369C11.3971 3.28369 9.84001 3.81799 8.56631 4.80453C7.29261 5.79107 6.37274 7.1753 5.94794 8.74466C5.52315 10.314 5.61694 11.9817 6.2149 13.4916C6.81286 15.0016 7.88193 16.2703 9.25793 17.1028C6.47613 18.0257 4.09246 19.9747 2.54566 22.6938C2.48894 22.7878 2.45131 22.8924 2.43501 23.0014C2.4187 23.1105 2.42405 23.2217 2.45073 23.3286C2.4774 23.4355 2.52488 23.5359 2.59034 23.6238C2.65581 23.7118 2.73794 23.7855 2.83189 23.8407C2.92584 23.8958 3.02971 23.9313 3.13737 23.945C3.24503 23.9587 3.3543 23.9503 3.45873 23.9204C3.56316 23.8905 3.66064 23.8396 3.74541 23.7708C3.83018 23.702 3.90053 23.6166 3.9523 23.5196C5.86574 20.1585 9.24777 18.1517 12.9985 18.1517C16.7492 18.1517 20.1312 20.1585 22.0446 23.5196C22.0964 23.6166 22.1668 23.702 22.2515 23.7708C22.3363 23.8396 22.4338 23.8905 22.5382 23.9204C22.6426 23.9503 22.7519 23.9587 22.8596 23.945C22.9672 23.9313 23.0711 23.8958 23.1651 23.8407C23.259 23.7855 23.3411 23.7118 23.4066 23.6238C23.4721 23.5359 23.5195 23.4355 23.5462 23.3286C23.5729 23.2217 23.5782 23.1105 23.5619 23.0014C23.5456 22.8924 23.508 22.7878 23.4513 22.6938ZM7.31097 10.7191C7.31097 9.57573 7.64454 8.45805 8.26949 7.50739C8.89444 6.55673 9.78271 5.81577 10.822 5.37823C11.8612 4.94069 13.0048 4.82621 14.1081 5.04926C15.2113 5.27232 16.2247 5.8229 17.0201 6.63137C17.8156 7.43984 18.3572 8.4699 18.5767 9.59129C18.7961 10.7127 18.6835 11.875 18.253 12.9313C17.8226 13.9877 17.0936 14.8905 16.1583 15.5257C15.223 16.1609 14.1234 16.5 12.9985 16.5C11.4906 16.4983 10.0448 15.8888 8.97859 14.805C7.91232 13.7212 7.31259 12.2518 7.31097 10.7191Z" fill="#161816"/>
</g>
</svg>
