<svg width="26" height="28" viewBox="0 0 26 28" fill="none" xmlns="http://www.w3.org/2000/svg">
<g id="basil:book-check-outline">
<path id="Vector" d="M16.8359 9.04551C16.9098 9.12378 16.9679 9.2161 17.0067 9.3172C17.0456 9.41829 17.0644 9.52617 17.0622 9.63467C17.06 9.74318 17.0368 9.85017 16.9938 9.94954C16.9509 10.0489 16.8891 10.1387 16.8121 10.2138L13.4266 13.5172C13.2754 13.6646 13.0739 13.7468 12.8644 13.7468C12.6548 13.7468 12.4534 13.6646 12.3021 13.5172L10.2709 11.5351C10.1904 11.461 10.1253 11.3712 10.0795 11.271C10.0338 11.1709 10.0082 11.0624 10.0044 10.952C10.0006 10.8417 10.0186 10.7317 10.0574 10.6285C10.0961 10.5253 10.1549 10.4311 10.2301 10.3514C10.3053 10.2717 10.3955 10.2082 10.4953 10.1645C10.5951 10.1209 10.7025 10.098 10.8111 10.0973C10.9198 10.0966 11.0275 10.118 11.1278 10.1604C11.2282 10.2027 11.3192 10.265 11.3954 10.3437L12.8644 11.7763L15.6876 9.02238C15.843 8.8709 16.0513 8.78836 16.2667 8.7929C16.482 8.79745 16.6867 8.8876 16.8359 9.04551Z" fill="#161816"/>
<path id="Vector_2" fill-rule="evenodd" clip-rule="evenodd" d="M4.0625 9.61803C4.0625 8.23086 4.60465 6.9005 5.56968 5.91963C6.53471 4.93875 7.84357 4.3877 9.20833 4.3877H20.0417C21.0882 4.3877 21.9375 5.25098 21.9375 6.31466V22.8315C21.9375 23.3426 21.7378 23.8327 21.3822 24.1941C21.0267 24.5555 20.5445 24.7585 20.0417 24.7585H8.125C7.04756 24.7585 6.01425 24.3234 5.25238 23.5491C4.49051 22.7747 4.0625 21.7244 4.0625 20.6293V9.61803ZM5.6875 17.3259C6.39011 16.7887 7.24579 16.4988 8.125 16.5001H20.3125V6.31466C20.3125 6.24165 20.284 6.17163 20.2332 6.12001C20.1824 6.06838 20.1135 6.03938 20.0417 6.03938H9.20833C8.27455 6.03938 7.37901 6.41642 6.71873 7.08754C6.05844 7.75867 5.6875 8.66891 5.6875 9.61803V17.3259ZM5.6875 20.6293C5.6875 21.2863 5.94431 21.9165 6.40143 22.3811C6.85855 22.8458 7.47853 23.1068 8.125 23.1068H20.0417C20.1135 23.1068 20.1824 23.0778 20.2332 23.0262C20.284 22.9745 20.3125 22.9045 20.3125 22.8315V18.1517H8.125C7.47853 18.1517 6.85855 18.4128 6.40143 18.8774C5.94431 19.342 5.6875 19.9722 5.6875 20.6293Z" fill="#161816"/>
</g>
</svg>
