<svg width="26" height="28" viewBox="0 0 26 28" fill="none" xmlns="http://www.w3.org/2000/svg">
<g id="octicon:search-24">
<path id="Vector" d="M15.7365 6.34628C14.5408 5.57369 13.1531 5.1634 11.736 5.16356C10.5387 5.16372 9.35898 5.45699 8.29678 6.01852C7.23458 6.58005 6.32114 7.39329 5.63368 8.38939C4.94622 9.38549 4.50494 10.5352 4.34711 11.7412C4.18928 12.9471 4.31953 14.174 4.72687 15.3181C5.1342 16.4621 5.80666 17.4897 6.68742 18.3139C7.56819 19.138 8.63136 19.7345 9.78702 20.0528C10.9427 20.3711 12.1568 20.4018 13.3266 20.1424C14.4814 19.8862 15.5595 19.3548 16.472 18.5921L21.5462 23.7496C21.6345 23.8457 21.7467 23.916 21.8711 23.953C21.9958 23.9901 22.128 23.9924 22.2539 23.9597C22.3799 23.9272 22.4949 23.8609 22.5868 23.7677C22.6787 23.6745 22.7441 23.5579 22.7762 23.4303C22.8083 23.3026 22.806 23.1685 22.7694 23.0421C22.7329 22.916 22.6637 22.8021 22.5689 22.7124L17.4937 17.5539C18.3841 16.4541 18.9516 15.1213 19.1307 13.7082C19.3118 12.2802 19.0887 10.8294 18.4876 9.52554C17.8865 8.22171 16.9322 7.11886 15.7365 6.34628ZM6.18491 15.0778C5.88288 14.3367 5.72742 13.5423 5.72742 12.7401C5.72742 11.1199 6.36066 9.56617 7.48759 8.42074C8.61449 7.27535 10.1427 6.63202 11.736 6.63202C13.3294 6.63202 14.8576 7.27535 15.9845 8.42074C17.1114 9.56617 17.7447 11.1199 17.7447 12.7401C17.7447 13.5423 17.5892 14.3367 17.2872 15.0778C16.9852 15.8189 16.5425 16.4923 15.9845 17.0594C15.4265 17.6266 14.7641 18.0764 14.0352 18.3833C13.3062 18.6902 12.525 18.8481 11.736 18.8481C10.9471 18.8481 10.1659 18.6902 9.43691 18.3833C8.70797 18.0764 8.04558 17.6266 7.48759 17.0594C6.9296 16.4923 6.48693 15.8189 6.18491 15.0778Z" fill="#161816" stroke="#161816" stroke-width="0.1"/>
</g>
</svg>
