<svg width="24" height="24" viewBox="0 0 24 24" fill="none" xmlns="http://www.w3.org/2000/svg">
<g id="basil:add-outline">
<path id="Vector" d="M6 12C6 11.761 6.09495 11.5317 6.26397 11.3627C6.43299 11.1937 6.66223 11.0987 6.90126 11.0987H11.0987V6.90126C11.0987 6.66223 11.1937 6.43299 11.3627 6.26397C11.5317 6.09495 11.761 6 12 6C12.239 6 12.4683 6.09495 12.6373 6.26397C12.8063 6.43299 12.9013 6.66223 12.9013 6.90126V11.0987H17.0987C17.3378 11.0987 17.567 11.1937 17.736 11.3627C17.905 11.5317 18 11.761 18 12C18 12.239 17.905 12.4683 17.736 12.6373C17.567 12.8063 17.3378 12.9013 17.0987 12.9013H12.9013V17.0987C12.9013 17.3378 12.8063 17.567 12.6373 17.736C12.4683 17.905 12.239 18 12 18C11.761 18 11.5317 17.905 11.3627 17.736C11.1937 17.567 11.0987 17.3378 11.0987 17.0987V12.9013H6.90126C6.66223 12.9013 6.43299 12.8063 6.26397 12.6373C6.09495 12.4683 6 12.239 6 12Z" fill="#161816"/>
<path id="Vector_2" fill-rule="evenodd" clip-rule="evenodd" d="M6.47478 2.3048C10.1468 1.8984 13.8525 1.8984 17.5245 2.3048C19.68 2.54507 21.4201 4.23995 21.6726 6.4036C22.1091 10.122 22.1091 13.878 21.6726 17.5964C21.419 19.76 19.6788 21.4537 17.5245 21.6952C13.8525 22.1016 10.1468 22.1016 6.47478 21.6952C4.31933 21.4537 2.57917 19.76 2.3267 17.5964C1.8911 13.8781 1.8911 10.1219 2.3267 6.4036C2.57917 4.23995 4.32051 2.54507 6.47478 2.3048ZM17.3287 4.05974C13.7868 3.66781 10.2125 3.66781 6.67062 4.05974C6.01495 4.13236 5.40296 4.42354 4.9335 4.88624C4.46404 5.34893 4.16454 5.95612 4.08338 6.60972C3.66379 10.1914 3.66379 13.8097 4.08338 17.3914C4.16479 18.0448 4.4644 18.6517 4.93383 19.1142C5.40327 19.5767 6.01513 19.8677 6.67062 19.9402C10.1828 20.3313 13.8165 20.3313 17.3287 19.9402C17.984 19.8674 18.5956 19.5763 19.0648 19.1139C19.534 18.6514 19.8334 18.0446 19.9148 17.3914C20.3344 13.8097 20.3344 10.1914 19.9148 6.60972C19.8332 5.95673 19.5336 5.35021 19.0644 4.88801C18.5952 4.42581 17.9838 4.13486 17.3287 4.0621V4.05974Z" fill="#161816"/>
</g>
</svg>
