<svg width="34" height="34" viewBox="0 0 34 34" fill="none" xmlns="http://www.w3.org/2000/svg">
<g clip-path="url(#clip0_1179_18242)">
<path fill-rule="evenodd" clip-rule="evenodd" d="M17.1713 11.4559C18.1784 11.4559 20.0667 10.0558 22.0548 10.26C22.8869 10.2953 25.222 10.6024 26.7219 12.8392C26.6021 12.919 23.9339 14.5018 23.9662 17.7979C23.9999 21.7373 27.3513 23.0453 27.3897 23.0653C27.359 23.1543 26.8539 24.9321 25.6227 26.7682C24.5588 28.3541 23.4565 29.9323 21.7186 29.9645C20.0099 29.9983 19.4603 28.9313 17.506 28.9313C15.5532 28.9313 14.9437 29.9323 13.3256 29.9983C11.6476 30.0628 10.3703 28.285 9.29869 26.7053C7.1064 23.4706 5.43149 17.5692 7.68058 13.5853C8.79669 11.6064 10.7925 10.3537 12.9602 10.3214C14.6075 10.2907 16.1642 11.4559 17.1713 11.4559ZM22.5214 4C22.6979 5.49684 22.0516 6.99982 21.0982 8.08214C20.1402 9.16294 18.5728 10.0042 17.036 9.89063C16.8288 8.42142 17.6041 6.89543 18.4883 5.93437C19.477 4.85359 21.1458 4.0522 22.5214 4Z" fill="white" stroke="white" stroke-width="0.0333333"/>
</g>
<defs>
<clipPath id="clip0_1179_18242">
<rect width="26" height="26" fill="white" transform="translate(4 4)"/>
</clipPath>
</defs>
</svg>
