<svg width="22" height="22" viewBox="0 0 22 22" fill="none" xmlns="http://www.w3.org/2000/svg">
<path id="Vector" d="M4 0C2.93913 0 1.92172 0.421427 1.17157 1.17157C0.421427 1.92172 0 2.93913 0 4V7.341C0 7.60622 0.105357 7.86057 0.292893 8.04811C0.48043 8.23564 0.734784 8.341 1 8.341C1.26522 8.341 1.51957 8.23564 1.70711 8.04811C1.89464 7.86057 2 7.60622 2 7.341V4C2 3.46957 2.21071 2.96086 2.58579 2.58579C2.96086 2.21071 3.46957 2 4 2H7.343C7.60822 2 7.86257 1.89464 8.05011 1.70711C8.23764 1.51957 8.343 1.26522 8.343 1C8.343 0.734784 8.23764 0.48043 8.05011 0.292893C7.86257 0.105357 7.60822 0 7.343 0H4ZM14.659 0C14.3938 0 14.1394 0.105357 13.9519 0.292893C13.7644 0.48043 13.659 0.734784 13.659 1C13.659 1.26522 13.7644 1.51957 13.9519 1.70711C14.1394 1.89464 14.3938 2 14.659 2H18C18.5304 2 19.0391 2.21071 19.4142 2.58579C19.7893 2.96086 20 3.46957 20 4V7.341C20 7.60622 20.1054 7.86057 20.2929 8.04811C20.4804 8.23564 20.7348 8.341 21 8.341C21.2652 8.341 21.5196 8.23564 21.7071 8.04811C21.8946 7.86057 22 7.60622 22 7.341V4C22 2.93913 21.5786 1.92172 20.8284 1.17157C20.0783 0.421427 19.0609 0 18 0H14.659ZM2 14.659C2 14.3938 1.89464 14.1394 1.70711 13.9519C1.51957 13.7644 1.26522 13.659 1 13.659C0.734784 13.659 0.48043 13.7644 0.292893 13.9519C0.105357 14.1394 0 14.3938 0 14.659V18C0 19.0609 0.421427 20.0783 1.17157 20.8284C1.92172 21.5786 2.93913 22 4 22H7.341C7.60622 22 7.86057 21.8946 8.04811 21.7071C8.23564 21.5196 8.341 21.2652 8.341 21C8.341 20.7348 8.23564 20.4804 8.04811 20.2929C7.86057 20.1054 7.60622 20 7.341 20H4C3.46957 20 2.96086 19.7893 2.58579 19.4142C2.21071 19.0391 2 18.5304 2 18V14.659ZM22 14.659C22 14.3938 21.8946 14.1394 21.7071 13.9519C21.5196 13.7644 21.2652 13.659 21 13.659C20.7348 13.659 20.4804 13.7644 20.2929 13.9519C20.1054 14.1394 20 14.3938 20 14.659V18C20 18.5304 19.7893 19.0391 19.4142 19.4142C19.0391 19.7893 18.5304 20 18 20H14.659C14.3938 20 14.1394 20.1054 13.9519 20.2929C13.7644 20.4804 13.659 20.7348 13.659 21C13.659 21.2652 13.7644 21.5196 13.9519 21.7071C14.1394 21.8946 14.3938 22 14.659 22H18C19.0609 22 20.0783 21.5786 20.8284 20.8284C21.5786 20.0783 22 19.0609 22 18V14.659ZM5.75 10C5.48478 10 5.23043 10.1054 5.04289 10.2929C4.85536 10.4804 4.75 10.7348 4.75 11C4.75 11.2652 4.85536 11.5196 5.04289 11.7071C5.23043 11.8946 5.48478 12 5.75 12H16.25C16.5152 12 16.7696 11.8946 16.9571 11.7071C17.1446 11.5196 17.25 11.2652 17.25 11C17.25 10.7348 17.1446 10.4804 16.9571 10.2929C16.7696 10.1054 16.5152 10 16.25 10H5.75Z" fill="black"/>
</svg>
