<svg width="20" height="22" viewBox="0 0 20 22" fill="none" xmlns="http://www.w3.org/2000/svg">
<g id="Frame 3019">
<path id="Vector" d="M16 7.00183C16 5.41053 15.3679 3.88441 14.2426 2.75919C13.1174 1.63397 11.5913 1.00183 10 1.00183C8.4087 1.00183 6.88258 1.63397 5.75736 2.75919C4.63214 3.88441 4 5.41053 4 7.00183C4 14.0018 1 16.0018 1 16.0018H19C19 16.0018 16 14.0018 16 7.00183Z" stroke="black" stroke-width="2" stroke-linecap="round" stroke-linejoin="round"/>
<path id="Vector_2" d="M11.7295 20.0018C11.5537 20.3049 11.3014 20.5565 10.9978 20.7314C10.6941 20.9062 10.3499 20.9983 9.99953 20.9983C9.64915 20.9983 9.30492 20.9062 9.0013 20.7314C8.69769 20.5565 8.44534 20.3049 8.26953 20.0018" stroke="black" stroke-width="2" stroke-linecap="round" stroke-linejoin="round"/>
</g>
</svg>
