<svg width="24" height="24" viewBox="0 0 24 24" fill="none" xmlns="http://www.w3.org/2000/svg">
<g id="menu">
<path id="Vector" fill-rule="evenodd" clip-rule="evenodd" d="M3 7.23034C3 5.84317 3.54215 4.51281 4.50718 3.53193C5.47221 2.55105 6.78107 2 8.14583 2H18.9792C20.0257 2 20.875 2.86328 20.875 3.92697V20.4438C20.875 20.9549 20.6753 21.445 20.3197 21.8064C19.9642 22.1678 19.482 22.3708 18.9792 22.3708H7.0625C5.98506 22.3708 4.95175 21.9357 4.18988 21.1614C3.42801 20.387 3 19.3367 3 18.2416V7.23034ZM4.625 14.9382C5.32761 14.401 6.18329 14.1111 7.0625 14.1124H19.25V3.92697C19.25 3.85396 19.2215 3.78394 19.1707 3.73231C19.1199 3.68069 19.051 3.65169 18.9792 3.65169H8.14583C7.21205 3.65169 6.31651 4.02872 5.65623 4.69985C4.99594 5.37098 4.625 6.28122 4.625 7.23034V14.9382ZM4.625 18.2416C4.625 18.8987 4.88181 19.5288 5.33893 19.9934C5.79605 20.4581 6.41603 20.7191 7.0625 20.7191H18.9792C19.051 20.7191 19.1199 20.6901 19.1707 20.6385C19.2215 20.5868 19.25 20.5168 19.25 20.4438V15.764H7.0625C6.41603 15.764 5.79605 16.0251 5.33893 16.4897C4.88181 16.9543 4.625 17.5845 4.625 18.2416Z" fill="#161816"/>
<path id="Vector_2" d="M7 7.75C7 7.55109 7.07902 7.36032 7.21967 7.21967C7.36032 7.07902 7.55109 7 7.75 7H15.75C15.9489 7 16.1397 7.07902 16.2803 7.21967C16.421 7.36032 16.5 7.55109 16.5 7.75C16.5 7.94891 16.421 8.13968 16.2803 8.28033C16.1397 8.42098 15.9489 8.5 15.75 8.5H7.75C7.55109 8.5 7.36032 8.42098 7.21967 8.28033C7.07902 8.13968 7 7.94891 7 7.75ZM7.75 10.5C7.55109 10.5 7.36032 10.579 7.21967 10.7197C7.07902 10.8603 7 11.0511 7 11.25C7 11.4489 7.07902 11.6397 7.21967 11.7803C7.36032 11.921 7.55109 12 7.75 12H12.75C12.9489 12 13.1397 11.921 13.2803 11.7803C13.421 11.6397 13.5 11.4489 13.5 11.25C13.5 11.0511 13.421 10.8603 13.2803 10.7197C13.1397 10.579 12.9489 10.5 12.75 10.5H7.75Z" fill="#161816"/>
</g>
</svg>
