<svg width="9" height="7" viewBox="0 0 9 7" fill="none" xmlns="http://www.w3.org/2000/svg">
<path d="M1.06 6.86L0.46 5.82C1.66 5.08 2.28 4.28 2.28 3C2.2 3.02 2.14 3.02 2.06 3.02C1.34 3.02 0.72 2.54 0.72 1.72C0.72 0.84 1.28 0.299999 2.06 0.299999C3.12 0.299999 3.7 1.14 3.7 2.6C3.7 4.5 2.8 5.9 1.06 6.86ZM5.46 6.86L4.86 5.82C6.06 5.08 6.68 4.28 6.68 3C6.6 3.02 6.54 3.02 6.46 3.02C5.74 3.02 5.1 2.54 5.1 1.72C5.1 0.84 5.68 0.299999 6.46 0.299999C7.52 0.299999 8.1 1.14 8.1 2.6C8.1 4.5 7.2 5.9 5.46 6.86Z" fill="#161816"/>
</svg>
